<?xml version="1.0" encoding="UTF-8"?>
<svg id="_图层_1" data-name="图层 1" xmlns="http://www.w3.org/2000/svg" xmlns:xlink="http://www.w3.org/1999/xlink" viewBox="0 0 256 256">
  <defs>
    <style>
      .cls-1 {
        fill: url(#_未命名的渐变_30-2);
      }

      .cls-1, .cls-2 {
        stroke-width: 0px;
      }

      .cls-2 {
        fill: url(#_未命名的渐变_30);
      }
    </style>
    <linearGradient id="_未命名的渐变_30" data-name="未命名的渐变 30" x1="9.19" y1="62.74" x2="250.91" y2="62.74" gradientUnits="userSpaceOnUse">
      <stop offset=".44" stop-color="#ff7bac"/>
      <stop offset=".56" stop-color="rgba(255, 123, 172, .76)" stop-opacity=".76"/>
      <stop offset=".78" stop-color="rgba(255, 123, 172, .36)" stop-opacity=".36"/>
      <stop offset=".93" stop-color="rgba(255, 123, 172, .1)" stop-opacity=".1"/>
      <stop offset="1" stop-color="#ff7bac" stop-opacity="0"/>
    </linearGradient>
    <linearGradient id="_未命名的渐变_30-2" data-name="未命名的渐变 30" x1="248.08" y1="193.25" x2="6.37" y2="193.25" xlink:href="#_未命名的渐变_30"/>
  </defs>
  <path class="cls-2" d="M224.35,53.44c28.04,34.3,26.54,48.31,26.54,48.31,0-.02,0-7-13.13-23.01-9.28-11.31-21.49-22.83-43.79-29.12-13.37-3.76,12.18,43.35,19.73,56.06,5.6,9.46-14.74,17.92-21.76,9.55-12.15-14.5-47.91-53.79-55.12-50.42-7.53,3.5-6.77,14.54-6.33,22.3.99,10.91,10.67,31.21,11.19,32.31-.79-1.13-15.53-22.23-43.19-40.42-11.47-7.56-23.35-10.1-34.42-10.03-14.36.08-25.58,7.94-36.49,12.31-4.59,1.83-18.37,12.58-18.37,12.58,0,0,3.04-17.19,25.03-46.48C58.5,15.03,100.63,6.04,126.72,6.05c17.58,0,34.97,3.64,50.07,10.51,20.2,9.19,36.68,23.56,47.57,36.88Z"/>
  <path class="cls-1" d="M32.92,202.56c-28.04-34.3-26.54-48.31-26.54-48.31,0,.02,0,7,13.13,23.02,9.27,11.31,21.49,22.83,43.79,29.11,13.37,3.76-12.19-43.34-19.73-56.06-5.61-9.45,14.74-17.92,21.75-9.54,12.16,14.5,47.92,53.78,55.13,50.42,7.53-3.5,6.76-14.55,6.33-22.31-1-11.05-10.9-31.69-11.21-32.33.46.66,15.22,22.03,43.2,40.45,11.47,7.55,23.35,10.09,34.43,10.03,14.36-.09,25.58-7.95,36.48-12.31,4.6-1.84,18.38-12.58,18.38-12.58,0,0-3.05,17.19-25.03,46.48-24.28,32.35-66.41,41.34-92.5,41.34-17.58,0-34.97-3.64-50.08-10.51-20.2-9.2-36.67-23.56-47.56-36.88Z"/>
</svg>